<?xml version="1.0" encoding="UTF-8" standalone="no"?>
<svg width="50px" height="37px" viewBox="0 0 50 37" version="1.1" xmlns="http://www.w3.org/2000/svg" xmlns:xlink="http://www.w3.org/1999/xlink" xmlns:sketch="http://www.bohemiancoding.com/sketch/ns">
    <!-- Generator: Sketch 3.3 (11970) - http://www.bohemiancoding.com/sketch -->
    <title>ID_card_F</title>
    <desc>Created with Sketch.</desc>
    <defs></defs>
    <g id="Welcome" stroke="none" stroke-width="1" fill="none" fill-rule="evenodd" sketch:type="MSPage">
        <g id="Desktop" sketch:type="MSArtboardGroup" transform="translate(-580.000000, -753.000000)" fill="#000000">
            <g id="Group-Copy" sketch:type="MSLayerGroup" transform="translate(225.000000, 748.000000)">
                <g id="Group" sketch:type="MSShapeGroup">
                    <path d="M355,7 L355,42 L405,42 L405,7 L355,7 Z M402.677961,39.7555318 C402.677961,39.7555318 387.056421,39.7555318 387.056421,39.7555318 C387.056421,39.7555318 379.02594,37.2486301 377.396689,36.7650519 C377.142303,36.6844686 377.102235,36.6713503 377.102235,35.6050264 C377.102235,34.7251686 377.462848,33.8378147 377.814144,33.0882021 C378.194326,32.2729985 378.645326,30.9021444 378.807462,29.6718428 C379.260326,29.1433659 379.877189,28.0995303 380.274144,26.1111829 C380.621712,24.3589635 380.459576,23.7217928 380.228485,23.1230397 C380.205189,23.0602597 380.18003,22.9974796 380.161394,22.9356366 C380.073803,22.5242867 380.194007,20.3897648 380.493121,18.733121 C380.698121,17.5965209 380.440007,15.1799573 378.883871,13.1813027 C377.900803,11.9172685 376.021326,10.3665074 372.586644,10.1500568 L370.703439,10.1519308 C367.327462,10.3665074 365.445189,11.9172685 364.462121,13.1813027 C362.906917,15.1799573 362.647871,17.5965209 362.853803,18.732184 C363.153848,20.3897648 363.272189,22.5242867 363.186462,22.9272034 C363.168757,22.9974796 363.142667,23.0602597 363.117507,23.1230397 C362.88828,23.7217928 362.72428,24.3589635 363.073712,26.1111829 C363.468803,28.0995303 364.085667,29.1433659 364.540394,29.6718428 C364.700667,30.9021444 365.152598,32.2729985 365.534644,33.0882021 C365.813257,33.6841442 365.943712,34.4965368 365.943712,35.6434441 C365.943712,36.709768 365.903644,36.7228862 365.665098,36.7987845 C362.577053,37.7151859 359.154925,38.8065228 357.322039,39.6142304 C357.322039,39.6142304 357.322039,9.24446832 357.322039,9.24446825 C357.322039,9.2444681 391.375007,9.24446825 402.677961,9.24446825 L402.677961,39.7555318 Z M388.995398,28 C388.445655,28 388,28.4438648 388,29 C388,29.5522847 388.455664,30 388.995398,30 L397.004602,30 C397.554345,30 398,29.5561352 398,29 C398,28.4477153 397.544336,28 397.004602,28 L388.995398,28 Z M388.002473,23 C387.448823,23 387,23.4438648 387,24 C387,24.5522847 387.455761,25 388.002473,25 L397.997527,25 C398.551177,25 399,24.5561352 399,24 C399,23.4477153 398.544239,23 397.997527,23 L388.002473,23 Z M371,5 L371,7 L389,7 L389,5 L371,5 Z" id="ID_card_F"></path>
                </g>
            </g>
        </g>
    </g>
</svg>