<?xml version="1.0" encoding="UTF-8" standalone="no"?>
<svg width="36px" height="48px" viewBox="0 0 36 48" version="1.1" xmlns="http://www.w3.org/2000/svg" xmlns:xlink="http://www.w3.org/1999/xlink" xmlns:sketch="http://www.bohemiancoding.com/sketch/ns">
    <!-- Generator: Sketch 3.3 (11970) - http://www.bohemiancoding.com/sketch -->
    <title>notebook_F</title>
    <desc>Created with Sketch.</desc>
    <defs></defs>
    <g id="Welcome" stroke="none" stroke-width="1" fill="none" fill-rule="evenodd" sketch:type="MSPage">
        <g id="Desktop" sketch:type="MSArtboardGroup" transform="translate(-242.000000, -748.000000)" fill="#000000">
            <g id="Group-Copy" sketch:type="MSLayerGroup" transform="translate(225.000000, 748.000000)">
                <g id="Group" sketch:type="MSShapeGroup">
                    <path d="M49,47 L49,48 L17,48 L17,0 L49,0 L49,1 C49.8709114,1 50.9951185,1 50.9951185,1 C52.1061002,1 53,1.89525812 53,2.99961498 L53,9.00038502 C53,9.60070081 52.7384838,10.1355372 52.3236394,10.5006819 C52.7389401,10.8670642 53,11.4028064 53,11.999615 L53,18.000385 C53,18.6007008 52.7384838,19.1355372 52.3236394,19.5006819 C52.7389401,19.8670642 53,20.4028064 53,20.999615 L53,27.000385 C53,27.6007008 52.7384838,28.1355372 52.3236394,28.5006819 C52.7389401,28.8670642 53,29.4028064 53,29.999615 L53,36.000385 C53,36.6007008 52.7384838,37.1355372 52.3236394,37.5006819 C52.7389401,37.8670642 53,38.4028064 53,38.999615 L53,45.000385 C53,46.1125667 52.102384,47 50.9951185,47 L49,47 L49,47 Z M48.974467,37 C48.974467,35.5710768 48.974467,29 48.974467,29 C48.974467,29 51.0093274,29 51.0093274,29 C51.5535722,29 52,29.4467346 52,29.9978096 L52,36.2742993 C52,36.6105794 51.8360235,36.9068133 51.5844861,37.0873768 C51.3982894,37.0305687 51.2004101,37 50.9951185,37 C50.9951185,37 49.8487669,37 48.974467,37 L48.974467,37 Z M48.974467,28 C48.974467,26.5710768 48.974467,20 48.974467,20 C48.974467,20 51.0093274,20 51.0093274,20 C51.5535722,20 52,20.4467346 52,20.9978096 L52,27.2742993 C52,27.6105794 51.8360235,27.9068133 51.5844861,28.0873768 C51.3982894,28.0305687 51.2004101,28 50.9951185,28 C50.9951185,28 49.8487669,28 48.974467,28 L48.974467,28 Z M48.974467,19 C48.974467,17.5710768 48.974467,11 48.974467,11 C48.974467,11 51.0093274,11 51.0093274,11 C51.5535722,11 52,11.4467346 52,11.9978096 L52,18.2742993 C52,18.6105794 51.8360235,18.9068133 51.5844861,19.0873768 C51.3982894,19.0305687 51.2004101,19 50.9951185,19 C50.9951185,19 49.8487669,19 48.974467,19 L48.974467,19 Z M48.974467,10 C48.974467,8.57107681 48.974467,2 48.974467,2 C48.974467,2 51.0093274,2 51.0093274,2 C51.5535722,2 52,2.44673458 52,2.99780961 L52,9.27429929 C52,9.61057938 51.8360235,9.90681333 51.5844861,10.0873768 C51.3982894,10.0305687 51.2004101,10 50.9951185,10 C50.9951185,10 49.8487669,10 48.974467,10 L48.974467,10 Z M48.974467,38 C48.974467,38 48.974467,46.272109 48.974467,46.272109 L51.0093274,46.2721089 C51.5564608,46.2721089 52,45.8273644 52,45.2742993 L52,38.9978096 C52,38.4467346 51.5535722,38 51.0093274,38 C51.0093274,38 48.974467,38 48.974467,38 Z M29.9970301,39 C29.4463856,39 29,39.4438648 29,40 L29,40 C29,40.5522847 29.4530363,41 29.9970301,41 L36.0029699,41 C36.5536144,41 37,40.5561352 37,40 L37,40 C37,39.4477153 36.5469637,39 36.0029699,39 L29.9970301,39 Z M24.9933977,8 C24.4447593,8 24,8.44386482 24,9 L24,9 C24,9.55228475 24.4449463,10 24.9933977,10 L41.0066023,10 C41.5552407,10 42,9.55613518 42,9 L42,9 C42,8.44771525 41.5550537,8 41.0066023,8 L24.9933977,8 Z M32.0093689,36 C31.4519098,36 31,36.4438648 31,37 L31,37 C31,37.5522847 31.4433532,38 32.0093689,38 L33.9906311,38 C34.5480902,38 35,37.5561352 35,37 L35,37 C35,36.4477153 34.5566468,36 33.9906311,36 L32.0093689,36 Z" id="notebook_F"></path>
                </g>
            </g>
        </g>
    </g>
</svg>